HIERARCHY
ROOT SpineBase
{
  OFFSET 0.000000 0.000000 0.000000
  CHANNELS 6 Xposition Yposition Zposition Zrotation Xrotation Yrotation
  JOINT SpineMid
  {
    OFFSET 0.000000 31.747664 0.000000
    CHANNELS 3 Zrotation Xrotation Yrotation
    JOINT SpineShoulder
    {
      OFFSET -0.049443 23.433332 -0.832725
      CHANNELS 3 Zrotation Xrotation Yrotation
      JOINT Neck
      {
        OFFSET -0.007597 7.706825 -0.632507
        CHANNELS 3 Zrotation Xrotation Yrotation
        JOINT Head
        {
          OFFSET -2.868287 14.808612 0.754761
          CHANNELS 3 Zrotation Xrotation Yrotation
          End Site
          {
            OFFSET 0 0 0
          }
        }
      }
      JOINT ShoulderLeft
      {
        OFFSET -18.177509 -5.294436 4.360335
        CHANNELS 3 Zrotation Xrotation Yrotation
        JOINT ElbowLeft
        {
          OFFSET -1.657935 -24.571686 0.932423
          CHANNELS 3 Zrotation Xrotation Yrotation
          JOINT WristLeft
          {
            OFFSET 3.232920 -23.174347 -5.920105
            CHANNELS 3 Zrotation Xrotation Yrotation
            JOINT HandLeft
            {
              OFFSET 1.249972 -7.311200 -2.305754
              CHANNELS 3 Zrotation Xrotation Yrotation
              JOINT HandTipLeft
              {
                OFFSET 1.832281 -7.332484 -0.089243
                CHANNELS 3 Zrotation Xrotation Yrotation
                End Site
                {
                  OFFSET 0 0 0
                }
              }
              JOINT ThumbLeft
              {
                OFFSET -2.985662 -2.258388 -2.118061
                CHANNELS 3 Zrotation Xrotation Yrotation
                End Site
                {
                  OFFSET 0 0 0
                }
              }
            }
          }
        }
      }
      JOINT ShoulderRight
      {
        OFFSET 17.274052 -3.896226 -5.466687
        CHANNELS 3 Zrotation Xrotation Yrotation
        JOINT ElbowRight
        {
          OFFSET 5.603916 -24.850241 0.682156
          CHANNELS 3 Zrotation Xrotation Yrotation
          JOINT WristRight
          {
            OFFSET -2.724974 -21.147921 -8.740612
            CHANNELS 3 Zrotation Xrotation Yrotation
            JOINT HandRight
            {
              OFFSET -2.884470 -3.723405 -2.010135
              CHANNELS 3 Zrotation Xrotation Yrotation
              JOINT HandTipRight
              {
                OFFSET -1.137237 -5.639543 -2.492973
                CHANNELS 3 Zrotation Xrotation Yrotation
                End Site
                {
                  OFFSET 0 0 0
                }
              }
              JOINT ThumbRight
              {
                OFFSET 3.294310 -1.968852 -1.503089
                CHANNELS 3 Zrotation Xrotation Yrotation
                End Site
                {
                  OFFSET 0 0 0
                }
              }
            }
          }
        }
      }
    }
  }
  JOINT HipLeft
  {
    OFFSET -7.707787 -0.336240 -1.811075
    CHANNELS 3 Zrotation Xrotation Yrotation
    JOINT KneeLeft
    {
      OFFSET 3.883597 -33.830242 5.949043
      CHANNELS 3 Zrotation Xrotation Yrotation
      JOINT AnkleLeft
      {
        OFFSET 8.852774 -38.964745 9.428567
        CHANNELS 3 Zrotation Xrotation Yrotation
        JOINT FootLeft
        {
          OFFSET -1.831578 -5.927921 -5.667337
          CHANNELS 3 Zrotation Xrotation Yrotation
          End Site
          {
            OFFSET 0 0 0
          }
        }
      }
    }
  }
  JOINT HipRight
  {
    OFFSET 7.896922 0.925810 -6.012065
    CHANNELS 3 Zrotation Xrotation Yrotation
    JOINT KneeRight
    {
      OFFSET 4.367452 -33.215481 -2.029652
      CHANNELS 3 Zrotation Xrotation Yrotation
      JOINT AnkleRight
      {
        OFFSET 3.050678 -39.488856 10.252062
        CHANNELS 3 Zrotation Xrotation Yrotation
        JOINT FootRight
        {
          OFFSET -4.771784 -6.371013 -2.723841
          CHANNELS 3 Zrotation Xrotation Yrotation
          End Site
          {
            OFFSET 0 0 0
          }
        }
      }
    }
  }
}
MOTION
Frames: 16
Frame Time: 0.033333
-16.315254 79.917241 370.407095 -0.000000 0.000000 15.067537 0.000000 0.000000 -15.067537 -0.000000 0.000000 0.000000 -0.000000 0.000000 0.000000 0.000000 0.000000 0.000000 -0.000000 0.000000 0.000000 -0.000000 0.000000 0.000000 -0.000000 0.000000 0.000000 -0.000000 0.000000 0.000000 0.000000 0.000000 0.000000 0.000000 0.000000 0.000000 -0.000000 0.000000 0.000000 -0.000000 0.000000 0.000000 -0.000000 0.000000 0.000000 -0.000000 0.000000 0.000000 0.000000 0.000000 0.000000 0.000000 0.000000 0.000000 0.000000 0.000000 -15.067537 -0.000000 0.000000 0.000000 -0.000000 0.000000 0.000000 0.000000 0.000000 0.000000 0.000000 0.000000 -15.067537 -0.000000 0.000000 0.000000 -0.000000 0.000000 0.000000 0.000000 0.000000 0.000000
-16.249394 79.895688 369.996641 -0.379761 -0.499744 16.012996 0.502893 0.375581 -16.016300 -0.000000 0.000000 0.000000 -0.000000 0.000000 0.000000 0.000000 0.000000 0.000000 -0.000000 0.000000 0.000000 -0.735937 0.274953 0.228192 -0.495987 0.558998 0.309610 3.765893 3.224311 0.411616 0.000000 0.000000 0.000000 0.000000 0.000000 0.000000 -0.000000 0.000000 0.000000 -0.685854 -0.892112 0.394049 1.490580 -2.809425 2.080362 -2.358616 -0.144102 -0.909084 0.000000 0.000000 0.000000 0.000000 0.000000 0.000000 0.512078 1.800124 -15.926335 -0.230916 -2.061521 -0.408668 -1.439215 2.172177 1.814304 0.000000 0.000000 0.000000 0.483242 -0.665719 -16.165107 -0.271057 1.005598 0.151136 3.008665 -3.891544 1.792607 0.000000 0.000000 0.000000
-16.245264 79.857196 369.659923 -0.666033 -0.947094 16.763708 -0.270140 -0.030221 -16.802602 -0.103804 0.033345 -0.048623 1.018305 1.022017 0.075555 0.000000 0.000000 0.000000 1.018305 1.022017 0.075555 -1.391224 0.494643 0.430682 -0.925055 0.944183 0.567476 6.683779 5.623867 0.618307 0.000000 0.000000 0.000000 0.000000 0.000000 0.000000 0.021250 0.836637 0.022744 -0.301108 -1.467519 0.806275 2.861146 -5.477679 4.109618 -4.350978 0.161762 -1.808764 0.000000 0.000000 0.000000 0.000000 0.000000 0.000000 0.921230 3.253063 -16.622306 -0.523390 -3.625852 -0.773422 -2.392659 3.505895 3.337132 0.000000 0.000000 0.000000 0.904918 -1.219017 -17.052460 -0.953678 2.584949 0.257829 5.761247 -6.656726 2.691097 0.000000 0.000000 0.000000
-16.302864 79.801764 369.396940 -0.859031 -1.342201 17.320914 -0.346691 -0.033354 -17.373361 -0.130937 0.048920 -0.061610 1.308386 1.430665 0.092553 0.000000 0.000000 0.000000 1.308386 1.430665 0.092553 -1.956433 0.655645 0.603049 -1.257438 1.134456 0.753784 8.785749 7.339280 0.701459 0.000000 0.000000 0.000000 0.000000 0.000000 0.000000 0.117681 1.169664 0.028310 -0.654601 -2.023518 1.124672 4.051699 -7.857197 5.985069 -5.887152 0.783428 -2.677512 0.000000 0.000000 0.000000 0.000000 0.000000 0.000000 1.202434 4.384657 -17.151380 -0.869525 -4.701332 -1.085093 -2.930022 4.126826 4.579686 0.000000 0.000000 0.000000 1.278698 -1.641820 -17.726258 -1.373591 3.516963 0.378358 7.590959 -7.368751 2.497892 0.000000 0.000000 0.000000
-16.422193 79.729393 369.207692 -0.958946 -1.685252 17.685661 -0.384702 -0.031832 -17.746451 -0.141938 0.063311 -0.067551 2.274465 1.896482 0.054576 0.000000 0.000000 0.000000 1.603107 0.852745 0.162941 -2.569173 1.676722 0.713775 -1.472307 1.121019 0.854758 10.092140 8.479882 0.709664 0.000000 0.000000 0.000000 0.000000 0.000000 0.000000 0.274223 1.447492 0.026603 -1.152166 -2.466237 1.392984 5.003311 -9.842353 7.615735 -6.917423 1.583791 -3.513723 0.000000 0.000000 0.000000 0.000000 0.000000 0.000000 1.336832 5.215298 -17.509687 -1.262374 -5.293256 -1.333012 -3.101429 4.110333 5.558712 0.000000 0.000000 0.000000 1.615298 -1.919339 -18.183914 -1.751870 4.197546 0.484414 8.793793 -6.584725 1.230309 0.000000 0.000000 0.000000
-16.603252 79.640083 369.092179 -0.965931 -1.976439 17.858522 -0.384487 -0.027080 -17.921789 -0.136956 0.076308 -0.066716 2.390545 2.055802 0.016249 0.000000 0.000000 0.000000 1.695214 0.701364 0.189700 -3.017732 2.139752 0.810442 -1.560201 0.907878 0.864548 10.608732 9.103917 0.670030 0.000000 0.000000 0.000000 0.000000 0.000000 0.000000 0.490722 1.670977 0.015983 -1.797254 -2.798325 1.614911 5.669256 -11.374050 8.933760 -7.425613 2.452039 -4.328510 0.000000 0.000000 0.000000 0.000000 0.000000 0.000000 1.311109 5.759287 -17.693919 -1.696273 -5.403594 -1.505265 -2.942384 3.494409 6.293364 0.000000 0.000000 0.000000 1.921781 -2.039887 -18.423517 -2.085206 4.620795 0.570920 9.480036 -4.341845 -1.141373 0.000000 0.000000 0.000000
-16.735443 79.531950 369.061931 -0.828456 -2.191999 17.659855 -0.253907 -0.003642 -17.714446 -0.057226 0.101895 -0.049535 2.072905 2.013171 -0.040818 0.000000 0.000000 0.000000 1.475670 0.244098 0.209075 -3.400963 2.729867 0.879852 -1.715874 -0.469446 0.638318 9.838056 8.963321 0.378456 0.000000 0.000000 0.000000 0.000000 0.000000 0.000000 1.123056 2.172370 0.073135 -3.415575 -3.260929 1.748867 6.653915 -13.301818 10.286928 -7.099180 5.745926 -5.936519 0.000000 0.000000 0.000000 0.000000 0.000000 0.000000 0.827313 6.123600 -17.541297 -2.285928 -4.982528 -1.638804 -1.642416 2.518928 6.317543 0.000000 0.000000 0.000000 2.166905 -2.093724 -18.275889 -2.527919 4.941617 0.638127 10.493826 1.242327 -6.530742 0.000000 0.000000 0.000000
-17.058100 79.410349 369.118862 -0.611723 -2.370446 17.412061 -0.165610 -0.007914 -17.454175 -0.020288 0.090789 -0.033403 1.773230 2.228433 -0.060036 0.000000 0.000000 0.000000 1.339719 -0.243565 0.235755 -3.664698 3.206127 0.859658 -1.927488 -0.651802 0.664979 8.925116 7.137585 -0.054616 0.000000 0.000000 0.000000 0.000000 0.000000 0.000000 1.446354 1.784121 -0.079626 -4.228896 -2.778080 1.961393 6.346549 -14.099251 11.197565 -6.192840 5.833362 -7.037955 0.000000 0.000000 0.000000 0.000000 0.000000 0.000000 0.353272 6.001911 -17.348041 -2.987918 -3.876926 -1.625925 -0.733743 -0.079213 6.944123 0.000000 0.000000 0.000000 2.473245 -1.903638 -18.044458 -2.894198 4.852975 0.680256 9.686992 5.000742 -9.333071 0.000000 0.000000 0.000000
-17.539664 79.285007 369.266431 -0.369563 -2.511022 17.031978 -0.124141 -0.017798 -17.060337 -0.004666 0.081981 -0.019379 1.528000 2.069664 -0.142445 0.000000 0.000000 0.000000 1.089046 -0.819630 0.268656 -3.632599 3.645743 0.781674 -1.828660 -0.669893 0.622896 7.796783 5.641510 -0.315511 0.000000 0.000000 0.000000 0.000000 0.000000 0.000000 1.917172 2.018404 -0.089641 -5.050085 -2.925411 1.942891 4.971747 -13.204560 10.985082 -4.637314 4.856099 -7.539889 0.000000 0.000000 0.000000 0.000000 0.000000 0.000000 0.003014 5.577737 -17.014722 -3.642428 -2.357689 -1.455039 -0.713007 -3.165901 8.101833 0.000000 0.000000 0.000000 2.780997 -1.337050 -17.630184 -2.987744 4.200974 0.670900 9.630024 9.252970 -12.833924 0.000000 0.000000 0.000000
-18.113608 79.158509 369.411664 -0.107616 -2.622555 16.546700 -0.080341 0.018818 -16.559555 0.009860 0.099313 -0.005026 1.233583 1.475733 -0.280740 0.000000 0.000000 0.000000 0.975626 -1.214404 0.286758 -3.756135 3.728483 0.695353 -1.360768 -0.665195 0.469396 4.969322 6.245462 0.088620 0.000000 0.000000 0.000000 0.000000 0.000000 0.000000 2.371908 2.172060 -0.096424 -5.879757 -3.031856 1.917566 3.749497 -11.739740 10.189711 -3.556403 2.440904 -7.211940 0.000000 0.000000 0.000000 0.000000 0.000000 0.000000 -0.156026 5.014349 -16.552322 -4.222097 -0.888689 -1.237204 -0.281457 -6.810247 8.769647 0.000000 0.000000 0.000000 2.991302 -0.573462 -17.085912 -2.788758 3.260878 0.651808 9.231757 12.319094 -15.179340 0.000000 0.000000 0.000000
-18.717891 79.037395 369.606154 0.152234 -2.661744 16.035675 -0.050890 0.075365 -16.033126 0.014691 0.125906 0.007640 1.161720 0.867513 -0.415552 0.000000 0.000000 0.000000 0.854254 -1.845024 0.318961 -3.966926 4.241879 0.698241 0.340580 -1.747418 -0.273968 0.934357 4.158328 0.123458 0.000000 0.000000 0.000000 0.000000 0.000000 0.000000 2.735757 2.274062 -0.088513 -7.035938 -3.027451 2.037920 3.680343 -11.342903 9.713939 -3.263382 1.490809 -6.988549 0.000000 0.000000 0.000000 0.000000 0.000000 0.000000 -0.346413 4.294837 -16.072240 -4.147000 0.519452 -0.859416 -0.998111 -9.587720 9.476956 0.000000 0.000000 0.000000 2.980006 0.264465 -16.492320 -2.194828 2.233322 0.652287 8.568427 14.025423 -16.405406 0.000000 0.000000 0.000000
-19.297717 78.937244 369.820538 0.388972 -2.668937 15.606854 -0.052596 0.119792 -15.590705 0.004915 0.138385 0.017138 1.236398 0.467204 -0.513571 0.000000 0.000000 0.000000 0.760755 -2.453486 0.353729 -4.030460 4.606789 0.644465 1.941336 -1.198189 -0.666634 -2.175426 2.295944 0.268528 0.000000 0.000000 0.000000 0.000000 0.000000 0.000000 3.159655 2.336787 -0.085817 -8.325138 -2.920030 2.216629 3.564942 -10.175436 8.562622 -3.933156 0.939395 -5.705846 0.000000 0.000000 0.000000 0.000000 0.000000 0.000000 -0.492651 3.611205 -15.668078 -3.894457 1.851856 -0.464940 -2.587280 -8.689818 9.432426 0.000000 0.000000 0.000000 2.732806 1.033114 -15.973211 -1.232005 1.402162 0.711900 6.730174 14.771903 -16.318103 0.000000 0.000000 0.000000
-19.808338 78.858079 370.011566 0.606797 -2.653139 15.215388 -0.063231 0.158005 -15.187009 -0.008218 0.152660 0.025222 1.325945 0.399676 -0.544201 0.000000 0.000000 0.000000 0.686978 -2.835363 0.372414 -4.248504 5.160772 0.719760 4.007428 -0.589611 -1.173805 -5.514671 1.021448 0.638885 0.000000 0.000000 0.000000 0.000000 0.000000 0.000000 3.128830 2.508958 -0.049761 -9.312850 -2.888221 2.428720 3.440447 -8.576897 7.072346 -5.346027 0.419343 -3.776264 0.000000 0.000000 0.000000 0.000000 0.000000 0.000000 -0.690851 2.972732 -15.307817 -3.579559 2.898465 -0.149226 -4.751232 -12.067782 11.479343 0.000000 0.000000 0.000000 2.273478 1.656780 -15.490625 -0.071228 0.697235 0.804492 5.772507 13.161721 -15.006853 0.000000 0.000000 0.000000
-20.193980 78.818612 370.138592 0.755959 -2.595403 14.947758 -0.090863 0.183811 -14.911562 -0.031042 0.156055 0.029012 1.664535 0.616051 -0.527813 0.000000 0.000000 0.000000 0.615194 -3.091405 0.382555 -4.386548 6.463007 0.947238 6.868756 -0.286933 -1.889695 -10.749357 1.247198 1.662106 0.000000 0.000000 0.000000 0.000000 0.000000 0.000000 2.971917 2.594825 -0.018181 -9.732021 -3.263103 2.574477 2.647946 -5.564733 5.214892 -4.299489 -2.436571 -2.635155 0.000000 0.000000 0.000000 0.000000 0.000000 0.000000 -0.921222 2.553725 -15.070926 -3.142213 3.492545 0.073184 -5.218438 -13.859307 11.771702 0.000000 0.000000 0.000000 1.728312 2.281527 -15.111728 1.231297 -0.093309 0.899455 4.684248 9.650540 -12.092241 0.000000 0.000000 0.000000
-20.505348 78.815437 370.270495 0.862330 -2.562753 14.831410 -0.057304 0.212571 -14.789291 -0.024728 0.184083 0.035083 2.169776 0.777743 -0.536897 0.000000 0.000000 0.000000 0.375876 -3.559358 0.399154 -3.946679 8.212357 1.046791 7.881598 0.701151 -1.932077 -12.911347 0.806700 1.863092 0.000000 0.000000 0.000000 0.000000 0.000000 0.000000 2.445540 2.660450 0.015805 -9.921639 -3.173321 2.726199 2.356237 -5.380580 5.062180 -4.739408 -1.253820 -2.325374 0.000000 0.000000 0.000000 0.000000 0.000000 0.000000 -1.089205 2.455617 -14.964443 -2.709800 3.634409 0.191661 -5.325963 -15.607039 11.979388 0.000000 0.000000 0.000000 1.121681 2.646541 -14.908780 2.557864 -0.954145 1.015907 5.170220 7.414267 -10.765366 0.000000 0.000000 0.000000
-20.670155 78.767261 370.206207 0.987237 -2.475195 14.426183 -0.057813 0.222094 -14.377775 -0.020962 0.202855 0.040593 2.618020 1.126079 -0.506619 0.000000 0.000000 0.000000 0.095176 -3.985894 0.407932 -3.304353 11.109046 1.264238 9.857316 1.040058 -2.183937 -16.786563 -0.164192 2.028725 0.000000 0.000000 0.000000 0.000000 0.000000 0.000000 2.146913 2.813261 0.068758 -11.063249 -2.614465 3.068986 3.847955 -7.303707 5.234318 -8.645925 7.862632 -1.198992 0.000000 0.000000 0.000000 0.000000 0.000000 0.000000 -1.441017 2.338508 -14.588474 -2.201656 3.531053 0.255535 -5.019073 -15.546155 11.479627 0.000000 0.000000 0.000000 0.688146 3.306396 -14.383015 3.438233 -1.609404 1.068517 5.295588 1.740883 -6.470016 0.000000 0.000000 0.000000
